<svg width="48" height="48" viewBox="0 0 512 512" xmlns="http://www.w3.org/2000/svg">
  <circle cx="256" cy="256" r="256" fill="#0C4B33"/>
  <path d="M362.4 178.1c.2 3.1.2 6.3.2 9.5 0 96.6-73.5 208-208 208A207 207 0 0 1 80 371c8.4 1 16.9 1.6 25.6 1.6a146.8 146.8 0 0 0 91-31.3c-29-1-53.4-19.7-61.8-46a73.8 73.8 0 0 0 33.3-1.2c-31.4-6.3-54.8-34-54.8-67.3v-.9c9.2 5.1 19.8 8.1 31 8.5a72.7 72.7 0 0 1-32.5-60.5c0-13.4 3.6-25.8 9.9-36.6a207 207 0 0 0 150.7 76.4c-1.2-5.3-1.8-10.8-1.8-16.5 0-39.6 32.2-71.8 71.8-71.8 20.6 0 39.3 8.7 52.4 22.7a143.4 143.4 0 0 0 45.4-17.3c-4.7 14.6-14.5 26.9-27.3 34.6 12.8-1.5 25-4.9 36.3-10.1a149.3 149.3 0 0 1-35.6 36.8z" fill="#C8E6C9"/>
</svg>
